<svg width="19" height="13" viewBox="0 0 19 13" fill="none" xmlns="http://www.w3.org/2000/svg">
<path d="M7.33594 0.832V2.64H2.67994V5.504H6.24794V7.28H2.67994V12H0.439938V0.832H7.33594ZM11.1643 4.432C11.4523 4.00533 11.847 3.65867 12.3483 3.392C12.8603 3.12533 13.4416 2.992 14.0923 2.992C14.8496 2.992 15.5323 3.17867 16.1403 3.552C16.759 3.92533 17.2443 4.45867 17.5963 5.152C17.959 5.83467 18.1403 6.62933 18.1403 7.536C18.1403 8.44267 17.959 9.248 17.5963 9.952C17.2443 10.6453 16.759 11.184 16.1403 11.568C15.5323 11.952 14.8496 12.144 14.0923 12.144C13.431 12.144 12.8496 12.016 12.3483 11.76C11.8576 11.4933 11.463 11.152 11.1643 10.736V12H8.92431V0.16H11.1643V4.432ZM15.8523 7.536C15.8523 7.00267 15.7403 6.544 15.5163 6.16C15.303 5.76533 15.015 5.46667 14.6523 5.264C14.3003 5.06133 13.9163 4.96 13.5003 4.96C13.095 4.96 12.711 5.06667 12.3483 5.28C11.9963 5.48267 11.7083 5.78133 11.4843 6.176C11.271 6.57067 11.1643 7.03467 11.1643 7.568C11.1643 8.10133 11.271 8.56533 11.4843 8.96C11.7083 9.35467 11.9963 9.65867 12.3483 9.872C12.711 10.0747 13.095 10.176 13.5003 10.176C13.9163 10.176 14.3003 10.0693 14.6523 9.856C15.015 9.64267 15.303 9.33867 15.5163 8.944C15.7403 8.54933 15.8523 8.08 15.8523 7.536Z" fill="white"/>
</svg>
