<svg width="14" height="17" viewBox="0 0 14 17" fill="none" xmlns="http://www.w3.org/2000/svg">
<path d="M2.69556 0.832V12H0.455563V0.832H2.69556ZM8.38069 2.992C9.04202 2.992 9.62335 3.12533 10.1247 3.392C10.626 3.648 11.0207 3.984 11.3087 4.4V3.136H13.5647V12.064C13.5647 12.8853 13.3994 13.616 13.0687 14.256C12.738 14.9067 12.242 15.4187 11.5807 15.792C10.9194 16.176 10.1194 16.368 9.18069 16.368C7.92202 16.368 6.88735 16.0747 6.07669 15.488C5.27669 14.9013 4.82335 14.1013 4.71669 13.088H6.94069C7.05802 13.4933 7.30869 13.8133 7.69269 14.048C8.08735 14.2933 8.56202 14.416 9.11669 14.416C9.76735 14.416 10.2954 14.2187 10.7007 13.824C11.106 13.44 11.3087 12.8533 11.3087 12.064V10.688C11.0207 11.104 10.6207 11.4507 10.1087 11.728C9.60735 12.0053 9.03135 12.144 8.38069 12.144C7.63402 12.144 6.95135 11.952 6.33269 11.568C5.71402 11.184 5.22335 10.6453 4.86069 9.952C4.50869 9.248 4.33269 8.44267 4.33269 7.536C4.33269 6.64 4.50869 5.84533 4.86069 5.152C5.22335 4.45867 5.70869 3.92533 6.31669 3.552C6.93535 3.17867 7.62335 2.992 8.38069 2.992ZM11.3087 7.568C11.3087 7.024 11.202 6.56 10.9887 6.176C10.7754 5.78133 10.4874 5.48267 10.1247 5.28C9.76202 5.06667 9.37269 4.96 8.95669 4.96C8.54069 4.96 8.15669 5.06133 7.80469 5.264C7.45269 5.46667 7.16469 5.76533 6.94069 6.16C6.72735 6.544 6.62069 7.00267 6.62069 7.536C6.62069 8.06933 6.72735 8.53867 6.94069 8.944C7.16469 9.33867 7.45269 9.64267 7.80469 9.856C8.16735 10.0693 8.55135 10.176 8.95669 10.176C9.37269 10.176 9.76202 10.0747 10.1247 9.872C10.4874 9.65867 10.7754 9.36 10.9887 8.976C11.202 8.58133 11.3087 8.112 11.3087 7.568Z" fill="white"/>
</svg>
